. 
  
http://www.torrenting.com/        :     Greatest Movie Tracker on The Net!!!
 
http://www.Torrenting.com          :     Once & For all ;)


               www . Torrenting . Com 

(((((((((((((= Enjoy No RAR releases =))))))))))))))))))))


...................................NFO:....................................

.








































          
          
              
              
                    
                    
                    
                    

Phase.7.2011.DVDSCR.XviD.READNFO-SiC

Poster:
[img]http://leetleech.org/images/50706353193240381187.jpg[/img]

IMDB Link: 
http://www.imdb.com/title/tt1568816/

Description:
Inside a quarantined apartment building a man must protect his pregnant wife from his new neighbors. 

Language: Spanish
Subtitles: English hardcoded

General
Complete name                    : Phase.7.2011.DVDSCR.XviD.READNFO-SiC.avi
Format                           : AVI
Format/Info                      : Audio Video Interleave
File size                        : 1.47 GiB
Duration                         : 1h 39mn
Overall bit rate                 : 2 122 Kbps

Video
ID                               : 0
Format                           : MPEG-4 Visual
Format profile                   : Advanced Simple@L5
Format settings, BVOP            : 1
Format settings, QPel            : No
Format settings, GMC             : No warppoints
Format settings, Matrix          : Default (H.263)
Codec ID                         : XVID
Codec ID/Hint                    : XviD
Duration                         : 1h 39mn
Bit rate                         : 1 921 Kbps
Width                            : 720 pixels
Height                           : 384 pixels
Display aspect ratio             : 2.25:1
Frame rate                       : 29.970 fps
Color space                      : YUV
Chroma subsampling               : 4:2:0
Bit depth                        : 8 bits
Scan type                        : Progressive
Compression mode                 : Lossy
Bits/(Pixel*Frame)               : 0.232
Stream size                      : 1.33 GiB (91%)
Writing library                  : XviD 1.2.1 (UTC 2008-12-04)

Audio
ID                               : 1
Format                           : AC-3
Format/Info                      : Audio Coding 3
Mode extension                   : CM (complete main)
Codec ID                         : 2000
Duration                         : 1h 39mn
Bit rate mode                    : Constant
Bit rate                         : 192 Kbps
Channel(s)                       : 2 channels
Channel positions                : Front: L R
Sampling rate                    : 48.0 KHz
Bit depth                        : 16 bits
Compression mode                 : Lossy
Stream size                      : 136 MiB (9%)
Alignment                        : Aligned on interleaves
Interleave, duration             : 64 ms (1.92 video frames)
Interleave, preload duration     : 192 ms
Title                            : VTS_01_1 T80 2_0ch 192Kbps DELAY 0ms


Screenshots:
[img]http://leetleech.org/images/19086126383688904711.png[/img]
[img]http://leetleech.org/images/47591352401974179518.png[/img]
[img]http://leetleech.org/images/88710283761904917111.png[/img]
[img]http://leetleech.org/images/00308453018758592382.png[/img]
[img]http://leetleech.org/images/34873590038007807893.png[/img]


Note: This is from the same studio that released YellowBrickRoad, so of course, the same annoying watermark is in the corner. It is noticable, as you can see from the screenshots below, but if you get passed it, and pay attention to the movie, it doesn't interfere too much. Also, there is a small artificial black bar at the bottom that could not be cropped, as this is a Spanish language film, and some of the subtitles were hardcoded onto that black bar. As always, enjoy. 

Encoder: Thefuzz

Enjoy!

Respects to CaptainHomey, Cyanide, CM8, Rx, THC, ELEKTRI4KA, Killerhz, XtremE, PA, YeFsTe, BHRG and everyone in the struggle...